<svg id="Layer_1" data-name="Layer 1" xmlns="http://www.w3.org/2000/svg" viewBox="0 0 1200 800"><defs><style>.cls-1,.cls-3{fill:#221d54;}.cls-1{opacity:0.25;}.cls-2{fill:none;stroke:#221d54;stroke-miterlimit:10;stroke-width:6px;}</style></defs><path class="cls-1" d="M548.56,468a211.85,211.85,0,0,0,102.88,0A210.74,210.74,0,0,0,600,382.36,210.74,210.74,0,0,0,548.56,468Z"/><path class="cls-2" d="M787,334.1A196.12,196.12,0,0,1,647.79,465.9,196,196,0,0,1,600,661.63a195.18,195.18,0,0,0,139.22,58.14C847.35,719.77,935,632.12,935,524,935,432.36,872,355.43,787,334.1Z"/><path class="cls-2" d="M552.21,465.9A196.12,196.12,0,0,1,413,334.1C328,355.43,265,432.36,265,524c0,108.13,87.65,195.78,195.78,195.78A195.18,195.18,0,0,0,600,661.63,196,196,0,0,1,552.21,465.9Z"/><path class="cls-2" d="M647.79,465.9a196.82,196.82,0,0,1-95.58,0A196,196,0,0,0,600,661.63,196,196,0,0,0,647.79,465.9Z"/><path class="cls-2" d="M600,386.36A196,196,0,0,1,787,334.1,195.57,195.57,0,0,0,795.78,276c0-108.13-87.65-195.78-195.78-195.78S404.22,167.88,404.22,276A195.57,195.57,0,0,0,413,334.1a196,196,0,0,1,187,52.26Z"/><path class="cls-2" d="M600,386.36a195.63,195.63,0,0,1,47.79,79.54A196.12,196.12,0,0,0,787,334.1a196,196,0,0,0-187,52.26Z"/><path class="cls-2" d="M552.21,465.9A195.63,195.63,0,0,1,600,386.36,196,196,0,0,0,413,334.1,196.12,196.12,0,0,0,552.21,465.9Z"/><path class="cls-2" d="M552.21,465.9a196.82,196.82,0,0,0,95.58,0A195.63,195.63,0,0,0,600,386.36,195.63,195.63,0,0,0,552.21,465.9Z"/><path class="cls-3" d="M483.25,224.83h8.35c7,0,11.9,4.83,11.9,11.13V236c0,6.3-4.86,11.2-11.9,11.2h-8.35Zm3.94,3.58v15.23h4.41c4.7,0,7.78-3.16,7.78-7.55V236a7.36,7.36,0,0,0-7.78-7.62Z"/><path class="cls-3" d="M508.91,224.83h16.61v3.52H512.85v5.82h11.23v3.55H512.85v6h12.83v3.52H508.91Z"/><path class="cls-3" d="M529.49,244l2.37-2.81a10.39,10.39,0,0,0,7.07,2.91c2.43,0,4-1.15,4-2.82v-.06c0-1.6-.9-2.46-5.06-3.42-4.77-1.16-7.45-2.56-7.45-6.69V231c0-3.83,3.2-6.49,7.64-6.49a12.38,12.38,0,0,1,8.13,2.82l-2.11,3A10.2,10.2,0,0,0,538,228c-2.3,0-3.65,1.18-3.65,2.65v.07c0,1.72,1,2.49,5.35,3.52,4.73,1.15,7.16,2.84,7.16,6.56v.06c0,4.19-3.29,6.69-8,6.69A13.81,13.81,0,0,1,529.49,244Z"/><path class="cls-3" d="M552.34,224.83h3.93v22.4h-3.93Z"/><path class="cls-3" d="M562.9,224.83h10a9,9,0,0,1,6.46,2.24,6.75,6.75,0,0,1,1.86,4.83V232c0,3.68-2.21,5.89-5.31,6.79l6.05,8.48h-4.68l-5.5-7.81h-4.93v7.81H562.9Zm9.69,11.1c2.82,0,4.61-1.47,4.61-3.74v-.07c0-2.4-1.73-3.71-4.64-3.71h-5.73v7.52Z"/><path class="cls-3" d="M594.61,224.67h3.65l9.85,22.56H604l-2.27-5.41H591.09l-2.31,5.41h-4Zm5.63,13.66-3.87-9-3.84,9Z"/><path class="cls-3" d="M612.59,224.83h10a8.1,8.1,0,0,1,5.86,2,5.07,5.07,0,0,1,1.5,3.71v.07a5.33,5.33,0,0,1-3.2,5c2.62.9,4.45,2.4,4.45,5.44v.06c0,4-3.3,6.15-8.29,6.15H612.59Zm13.47,6.34c0-1.76-1.4-2.85-3.93-2.85h-5.67v6h5.38c2.53,0,4.22-1,4.22-3Zm-3.36,6.43h-6.24v6.14H623c2.66,0,4.32-1.06,4.32-3.07v-.07C627.31,238.72,625.81,237.6,622.7,237.6Z"/><path class="cls-3" d="M636.56,224.83h3.94v22.4h-3.94Z"/><path class="cls-3" d="M647.12,224.83h3.94v18.81h11.77v3.59H647.12Z"/><path class="cls-3" d="M667.76,224.83h3.94v22.4h-3.94Z"/><path class="cls-3" d="M683.79,228.48h-7.13v-3.65h18.2v3.65h-7.13v18.75h-3.94Z"/><path class="cls-3" d="M706.19,238.4l-8.9-13.57H702l6.24,9.89,6.33-9.89h4.51l-8.89,13.47v8.93h-4Z"/><path class="cls-3" d="M690.6,536.08h16.67v3.58H694.53v6.11h11.3v3.59h-11.3v9.11H690.6Z"/><path class="cls-3" d="M712.23,536.08h16.61v3.52H716.17v5.82H727.4V549H716.17v6H729v3.51H712.23Z"/><path class="cls-3" d="M742.25,535.92h3.64l9.86,22.55h-4.16l-2.27-5.4H738.73l-2.31,5.4h-4Zm5.63,13.66-3.88-9-3.83,9Z"/><path class="cls-3" d="M758.37,555.21l2.37-2.81a10.41,10.41,0,0,0,7.07,2.91c2.44,0,4-1.15,4-2.82v-.06c0-1.6-.9-2.47-5-3.43-4.77-1.15-7.46-2.56-7.46-6.68v-.07c0-3.84,3.2-6.49,7.65-6.49a12.42,12.42,0,0,1,8.12,2.81l-2.11,3a10.13,10.13,0,0,0-6.08-2.31c-2.3,0-3.64,1.19-3.64,2.66V542c0,1.73,1,2.5,5.34,3.52,4.74,1.16,7.17,2.85,7.17,6.56v.07c0,4.19-3.3,6.68-8,6.68A13.8,13.8,0,0,1,758.37,555.21Z"/><path class="cls-3" d="M781.22,536.08h3.94v22.39h-3.94Z"/><path class="cls-3" d="M791.78,536.08h10.05a8.07,8.07,0,0,1,5.85,2,5,5,0,0,1,1.51,3.71v.07a5.35,5.35,0,0,1-3.2,5c2.62.89,4.45,2.4,4.45,5.44v.06c0,4-3.3,6.14-8.29,6.14H791.78Zm13.47,6.33c0-1.76-1.41-2.85-3.93-2.85h-5.67v6H801c2.53,0,4.22-1,4.22-3Zm-3.36,6.43h-6.24V555h6.53c2.66,0,4.32-1.06,4.32-3.07v-.07C806.5,550,805,548.84,801.89,548.84Z"/><path class="cls-3" d="M815.75,536.08h3.93v22.39h-3.93Z"/><path class="cls-3" d="M826.31,536.08h3.93v18.81H842v3.58H826.31Z"/><path class="cls-3" d="M847,536.08h3.93v22.39H847Z"/><path class="cls-3" d="M863,539.72h-7.14v-3.64h18.21v3.64h-7.13v18.75H863Z"/><path class="cls-3" d="M885.38,549.64l-8.9-13.56h4.68l6.23,9.88,6.34-9.88h4.51l-8.89,13.47v8.92h-4Z"/><path class="cls-3" d="M321.09,534.33h4.35l6.75,17.21,6.72-17.21h4.26l-9.28,22.55h-3.52Z"/><path class="cls-3" d="M347.87,534.33h3.94v22.39h-3.94Z"/><path class="cls-3" d="M366.37,534.17H370l9.85,22.55h-4.16l-2.27-5.4H362.85l-2.31,5.4h-4ZM372,547.83l-3.87-9-3.84,9Z"/><path class="cls-3" d="M384.35,534.33h10a8.05,8.05,0,0,1,5.85,2,5,5,0,0,1,1.51,3.71v.06a5.36,5.36,0,0,1-3.2,5c2.62.89,4.45,2.4,4.45,5.44v.06c0,4-3.3,6.14-8.29,6.14H384.35Zm13.47,6.33c0-1.76-1.4-2.85-3.93-2.85h-5.67v6h5.38c2.53,0,4.22-1,4.22-3Zm-3.36,6.43h-6.24v6.15h6.53c2.66,0,4.32-1.06,4.32-3.08v-.06C399.07,548.21,397.57,547.09,394.46,547.09Z"/><path class="cls-3" d="M408.32,534.33h3.93v22.39h-3.93Z"/><path class="cls-3" d="M418.88,534.33h3.93v18.81h11.78v3.58H418.88Z"/><path class="cls-3" d="M439.52,534.33h3.93v22.39h-3.93Z"/><path class="cls-3" d="M455.55,538h-7.13v-3.64h18.2V538h-7.13v18.75h-3.94Z"/><path class="cls-3" d="M478,547.89l-8.9-13.56h4.68l6.24,9.88,6.33-9.88h4.51l-8.89,13.47v8.92h-4Z"/></svg>