<svg xmlns="http://www.w3.org/2000/svg" viewBox="0 0 960 270"><defs><style>.cls-1{fill:#fff;}.cls-2{isolation:isolate;}.cls-3{fill:#fdfeff;}</style></defs><g id="Layer_3" data-name="Layer 3"><g id="color"><polygon class="cls-1" points="423.16 100.58 430.5 87.85 441.52 106.97 423.16 100.58"/><polygon class="cls-1" points="470.76 106.97 478.04 94.39 481.6 100.58 470.76 106.97"/><polygon class="cls-1" points="441.52 106.97 470.76 106.97 469.96 125.89 441.52 106.97"/><polygon class="cls-1" points="441.52 106.97 469.96 125.89 437.78 125.89 441.52 106.97"/><polygon class="cls-1" points="423.16 100.58 441.52 106.97 437.78 125.89 423.16 100.58"/><polygon class="cls-1" points="470.76 106.97 481.6 100.58 469.96 125.89 470.76 106.97"/><polygon class="cls-1" points="474.26 127.31 490.18 138.18 491.8 150.68 474.26 127.31"/><polygon class="cls-1" points="490.18 138.18 498.9 149.82 491.8 150.68 490.18 138.18"/><polygon class="cls-1" points="474.26 127.31 501.67 111.33 490.18 138.18 474.26 127.31"/><polygon class="cls-1" points="501.67 111.33 485.76 100.43 474.26 127.31 501.67 111.33"/><polygon class="cls-1" points="485.76 100.43 514.76 96.92 501.67 111.33 485.76 100.43"/><polygon class="cls-1" points="501.67 111.33 514.76 96.92 523.57 108.68 501.67 111.33"/><polygon class="cls-1" points="527.46 114.84 531.11 121.24 538.27 121.39 527.46 114.84"/><polygon class="cls-1" points="531.11 121.24 527.46 114.84 500.94 158.52 531.11 121.24"/><polygon class="cls-1" points="500.94 158.52 531.11 121.24 508.45 158.66 500.94 158.52"/><polygon class="cls-1" points="531.11 121.24 538.27 121.39 538.13 133.97 531.11 121.24"/><polygon class="cls-1" points="538.13 133.97 538.27 121.39 552.36 146.99 538.13 133.97"/><polygon class="cls-1" points="538.13 133.97 552.36 146.99 537.21 171.99 538.13 133.97"/><polygon class="cls-1" points="538.13 133.97 537.21 171.99 522.98 158.99 538.13 133.97"/><polygon class="cls-1" points="508.01 171.4 522.98 158.99 537.21 171.99 508.01 171.4"/><polygon class="cls-1" points="500.94 158.52 522.98 158.99 508.01 171.4 500.94 158.52"/></g><g id="text"><g class="cls-2"><path class="cls-1" d="M421.45,140.19h4.16v.7l-1.12.39,2.12,5.39,2-5.39-1.12-.39v-.7h4.1v.7l-1.3.42-2.94,7h-1.65l-3-7-1.3-.42v-.7Z"/><path class="cls-1" d="M437.07,148.29H432.8v-.71l1.35-.53v-5.8H432.8v-1a3.22,3.22,0,0,1,1.47-.3,1.29,1.29,0,0,1,1.12.41,2,2,0,0,1,.3,1.21v5.48l1.38.53Zm-1.32-10.2a1.29,1.29,0,0,1-.92.39,1.2,1.2,0,0,1-.91-.39,1.26,1.26,0,0,1-.38-.91,1.2,1.2,0,0,1,.38-.91,1.27,1.27,0,0,1,.91-.39,1.23,1.23,0,0,1,.92.39,1.3,1.3,0,0,1,.38.91A1.23,1.23,0,0,1,435.75,138.09Z"/><path class="cls-1" d="M444.26,142.49h-1l-.23-.83a1.89,1.89,0,0,0-1.3-.41,3.48,3.48,0,0,0-1.36.23.68.68,0,0,0-.47.62.92.92,0,0,0,.36.71,2.27,2.27,0,0,0,.73.5c.24.12.71.27,1.33.5a4.31,4.31,0,0,1,1.56.86,1.76,1.76,0,0,1,.62,1.41,2,2,0,0,1-.85,1.77,3.43,3.43,0,0,1-1.95.62,5.85,5.85,0,0,1-1.89-.27,3.37,3.37,0,0,1-1.12-.56l-.32-.26v-1.74h1l.36,1s.08.09.26.18a3.33,3.33,0,0,0,1.53.38,2.62,2.62,0,0,0,1.18-.23.76.76,0,0,0,.42-.68,1.11,1.11,0,0,0-.45-.83,4.2,4.2,0,0,0-1.53-.71,5.35,5.35,0,0,1-1.8-.91,1.86,1.86,0,0,1-.73-1.41,2.11,2.11,0,0,1,.85-1.83,3.66,3.66,0,0,1,2.21-.62,5.07,5.07,0,0,1,1.33.18,5.93,5.93,0,0,1,1,.32l.35.18v1.83Z"/><path class="cls-1" d="M455.17,147.2v1a3.25,3.25,0,0,1-1.45.3,1.58,1.58,0,0,1-1.12-.33,1.64,1.64,0,0,1-.35-1,3.42,3.42,0,0,1-1.41,1,3.13,3.13,0,0,1-1.36.3,2.49,2.49,0,0,1-1.92-.71,2.7,2.7,0,0,1-.64-1.92v-4.59h-1.36v-1A3.35,3.35,0,0,1,447,140a1.29,1.29,0,0,1,1.12.41,2,2,0,0,1,.3,1.21v3.68a2.78,2.78,0,0,0,.32,1.45,1.26,1.26,0,0,0,1.15.47,3.07,3.07,0,0,0,1.42-.32,4.27,4.27,0,0,0,.88-.65v-4.95h-1.36v-1a3.43,3.43,0,0,1,1.48-.29,1.3,1.3,0,0,1,1.12.41,2,2,0,0,1,.29,1.21v5.6h1.42Z"/><path class="cls-1" d="M464.45,147.2v1a3,3,0,0,1-1.38.3,1.51,1.51,0,0,1-1.09-.3,1.14,1.14,0,0,1-.39-.85,2.85,2.85,0,0,1-2.36,1.15,3.64,3.64,0,0,1-2.21-.59,1.94,1.94,0,0,1-.73-1.65c0-1.36.94-2.15,2.83-2.33l2.44-.27v-.47a2.29,2.29,0,0,0-.38-1.44,1.54,1.54,0,0,0-1.24-.5,7.74,7.74,0,0,0-2.53.35l-.33.12-.29-1a4.82,4.82,0,0,1,1.38-.47,7.24,7.24,0,0,1,1.74-.21,3.73,3.73,0,0,1,2.48.68,2.53,2.53,0,0,1,.73,1.94v4.6Zm-6.28-1.86a1,1,0,0,0-.35.8.91.91,0,0,0,.41.77,2.1,2.1,0,0,0,1.12.29,3.13,3.13,0,0,0,2.21-.74V144.7l-2.38.26A2.14,2.14,0,0,0,458.17,145.34Z"/><path class="cls-1" d="M469.52,148.29h-4.27v-.71l1.35-.53V137h-1.35v-1a3.35,3.35,0,0,1,1.47-.29,1.28,1.28,0,0,1,1.12.41,2.18,2.18,0,0,1,.29,1.21v9.72l1.39.53Z"/></g><g class="cls-2"><path class="cls-1" d="M348.22,163.11a4.28,4.28,0,0,1-3-1.06,4,4,0,0,1-1.15-3.06,4.28,4.28,0,0,1,.45-2,3.79,3.79,0,0,1,1.14-1.38,5.6,5.6,0,0,1,3.25-1,4.31,4.31,0,0,1,1.06.12,2.7,2.7,0,0,1,.76.26l.27.15V157h-1l-.24-1a1.51,1.51,0,0,0-.88-.17,3.32,3.32,0,0,0-2.33.85,2.72,2.72,0,0,0-.91,2.12,3,3,0,0,0,.79,2.12,2.8,2.8,0,0,0,2.15.83,5.14,5.14,0,0,0,1.21-.15,2.42,2.42,0,0,0,.8-.29l.23-.12.47.85-.14.12a2.37,2.37,0,0,1-.39.24c-.2.11-.41.2-.62.29A4.48,4.48,0,0,1,348.22,163.11Z"/><path class="cls-1" d="M359.77,161.94a4.25,4.25,0,1,1,0-6.13,4.57,4.57,0,0,1,0,6.13Zm-4.86-.89a2.46,2.46,0,0,0,1.86.8,2.36,2.36,0,0,0,1.85-.8,3.1,3.1,0,0,0,.74-2.12,3.17,3.17,0,0,0-.74-2.18,2.43,2.43,0,0,0-3.71,0,3.17,3.17,0,0,0-.74,2.18A3,3,0,0,0,354.91,161.05Z"/><path class="cls-1" d="M377.28,162.94H373v-.71l1.3-.53v-3.89a2.72,2.72,0,0,0-.32-1.44,1.25,1.25,0,0,0-1.15-.48,3.07,3.07,0,0,0-2.24.92,1.68,1.68,0,0,1,.06.41v4.45l1.44.53v.71h-4.27v-.71l1.29-.53v-3.89a2.62,2.62,0,0,0-.32-1.44,1.24,1.24,0,0,0-1.15-.47,3.3,3.3,0,0,0-2.39,1.06v4.74l1.39.53v.71h-4.28v-.71l1.36-.53v-5.8h-1.36v-1a3.39,3.39,0,0,1,1.45-.29,1.49,1.49,0,0,1,1.12.35,1.56,1.56,0,0,1,.32,1.06,6.15,6.15,0,0,1,.68-.68,3.44,3.44,0,0,1,2.15-.76,2.21,2.21,0,0,1,2.33,1.44,3.64,3.64,0,0,1,2.83-1.44,2.47,2.47,0,0,1,1.92.71,2.84,2.84,0,0,1,.64,1.91v4.45l1.45.53v.77Z"/><path class="cls-1" d="M393.1,162.94h-4.27v-.71l1.3-.53v-3.89a2.62,2.62,0,0,0-.33-1.44,1.24,1.24,0,0,0-1.15-.48,3.08,3.08,0,0,0-2.24.92,1.68,1.68,0,0,1,.06.41v4.45l1.45.53v.71h-4.28v-.71l1.3-.53v-3.89a2.72,2.72,0,0,0-.32-1.44,1.24,1.24,0,0,0-1.15-.47,3.29,3.29,0,0,0-2.39,1.06v4.74l1.38.53v.71h-4.27v-.71l1.36-.53v-5.8h-1.36v-1a3.31,3.31,0,0,1,1.44-.29,1.46,1.46,0,0,1,1.12.35,1.56,1.56,0,0,1,.33,1.06,5.38,5.38,0,0,1,.68-.68,3.4,3.4,0,0,1,2.15-.76,2.22,2.22,0,0,1,2.33,1.44,3.61,3.61,0,0,1,2.83-1.44,2.43,2.43,0,0,1,1.91.71,2.84,2.84,0,0,1,.65,1.91v4.45l1.44.53v.77Z"/><path class="cls-1" d="M403.27,161.85v1a3.17,3.17,0,0,1-1.44.29,1.56,1.56,0,0,1-1.12-.32,1.6,1.6,0,0,1-.36-1,3.92,3.92,0,0,1-.5.5,3.15,3.15,0,0,1-.91.53,3.09,3.09,0,0,1-1.36.29,2.46,2.46,0,0,1-1.91-.7,2.66,2.66,0,0,1-.65-1.92v-4.6h-1.36v-1a3.43,3.43,0,0,1,1.48-.29,1.28,1.28,0,0,1,1.12.41,2,2,0,0,1,.29,1.21V160a2.78,2.78,0,0,0,.32,1.45,1.26,1.26,0,0,0,1.15.47,2.92,2.92,0,0,0,1.42-.33,3.46,3.46,0,0,0,.88-.65v-5H399v-1a3.22,3.22,0,0,1,1.47-.29,1.28,1.28,0,0,1,1.12.41,2,2,0,0,1,.3,1.21v5.6h1.41Z"/><path class="cls-1" d="M414.12,162.94h-4.28v-.71l1.3-.53v-3.89a2.62,2.62,0,0,0-.33-1.44,1.23,1.23,0,0,0-1.14-.48,3.3,3.3,0,0,0-2.39,1.07v4.74l1.38.53v.71h-4.27v-.71l1.36-.53v-5.81h-1.36v-1a3.31,3.31,0,0,1,1.44-.29A1.47,1.47,0,0,1,407,155a1.56,1.56,0,0,1,.33,1.06,5.38,5.38,0,0,1,.68-.68,3.51,3.51,0,0,1,2.21-.76,2.3,2.3,0,0,1,1.85.71,2.79,2.79,0,0,1,.65,1.91v4.45l1.45.53v.74Z"/><path class="cls-1" d="M419.36,162.94h-4.27v-.71l1.35-.53v-5.81h-1.35v-1a3.35,3.35,0,0,1,1.47-.29,1.28,1.28,0,0,1,1.12.41,2,2,0,0,1,.3,1.21v5.48l1.38.53ZM418,152.74a1.26,1.26,0,0,1-.91.38,1.2,1.2,0,0,1-.91-.38,1.27,1.27,0,0,1-.39-.91,1.23,1.23,0,0,1,.39-.92,1.3,1.3,0,0,1,.91-.38,1.23,1.23,0,0,1,.91.38,1.29,1.29,0,0,1,.39.92A1.32,1.32,0,0,1,418,152.74Z"/><path class="cls-1" d="M424.67,163.11a4.26,4.26,0,0,1-3-1.06,3.94,3.94,0,0,1-1.15-3.06,4.4,4.4,0,0,1,.44-2,3.92,3.92,0,0,1,1.15-1.38,5.55,5.55,0,0,1,3.24-1,4.21,4.21,0,0,1,1.06.12,2.79,2.79,0,0,1,.77.26l.27.15V157h-1l-.23-1a1.53,1.53,0,0,0-.89-.17,3.3,3.3,0,0,0-2.32.85,2.73,2.73,0,0,0-.92,2.12,3,3,0,0,0,.8,2.12,2.8,2.8,0,0,0,2.15.83,5.21,5.21,0,0,0,1.21-.15,2.26,2.26,0,0,0,.79-.29l.24-.12.47.85s-.09.06-.15.12a2.14,2.14,0,0,1-.38.24c-.21.11-.41.2-.62.29A4.6,4.6,0,0,1,424.67,163.11Z"/><path class="cls-1" d="M437.1,161.85v1a3,3,0,0,1-1.38.29,1.53,1.53,0,0,1-1.09-.29,1.16,1.16,0,0,1-.39-.85,2.84,2.84,0,0,1-2.35,1.14,3.6,3.6,0,0,1-2.21-.58,2,2,0,0,1-.74-1.65c0-1.36.94-2.16,2.83-2.33l2.44-.27v-.47a2.23,2.23,0,0,0-.38-1.44,1.49,1.49,0,0,0-1.24-.5,7.48,7.48,0,0,0-2.53.35l-.33.12-.29-1a5.24,5.24,0,0,1,1.38-.48,7.75,7.75,0,0,1,1.74-.2,3.68,3.68,0,0,1,2.48.68,2.53,2.53,0,0,1,.74,1.94v4.6ZM430.85,160a1,1,0,0,0-.35.8.88.88,0,0,0,.41.76,2,2,0,0,0,1.12.3,3.18,3.18,0,0,0,2.21-.74v-1.77l-2.38.27A1.83,1.83,0,0,0,430.85,160Z"/><path class="cls-1" d="M440.87,161.29a1.67,1.67,0,0,0,1.3.5,3.18,3.18,0,0,0,1.42-.27l.32.83c0,.06-.12.12-.18.2a2.36,2.36,0,0,1-.62.36,2.45,2.45,0,0,1-1.06.2,3.1,3.1,0,0,1-2.3-.82,3.46,3.46,0,0,1-.82-2.45V156.1h-.86v-1l1.57-1.56h.82v1.23h2.74v1.3h-2.74v3.3A3.3,3.3,0,0,0,440.87,161.29Z"/><path class="cls-1" d="M449,162.94h-4.28v-.71l1.36-.53v-5.81h-1.36v-1a3.43,3.43,0,0,1,1.48-.29,1.28,1.28,0,0,1,1.12.41,2,2,0,0,1,.29,1.21v5.48l1.39.53Zm-1.33-10.2a1.26,1.26,0,0,1-.91.38,1.22,1.22,0,0,1-.92-.38,1.3,1.3,0,0,1-.38-.91,1.25,1.25,0,0,1,.38-.92,1.33,1.33,0,0,1,.92-.38,1.23,1.23,0,0,1,.91.38,1.28,1.28,0,0,1,.38.92A1.2,1.2,0,0,1,447.71,152.74Z"/><path class="cls-1" d="M457.38,161.94a4.3,4.3,0,0,1-6-6.13,4.42,4.42,0,0,1,6,0,4.15,4.15,0,0,1,1.18,3.06A4,4,0,0,1,457.38,161.94Zm-4.86-.89a2.55,2.55,0,0,0,3.71,0,3.1,3.1,0,0,0,.74-2.12,3.17,3.17,0,0,0-.74-2.18,2.43,2.43,0,0,0-3.71,0,3.12,3.12,0,0,0-.74,2.18A3.05,3.05,0,0,0,452.52,161.05Z"/><path class="cls-1" d="M469.73,162.94h-4.28v-.71l1.3-.53v-3.89a2.72,2.72,0,0,0-.32-1.44,1.25,1.25,0,0,0-1.15-.48,3.3,3.3,0,0,0-2.39,1.07v4.74l1.38.53v.71H460v-.71l1.36-.53v-5.81H460v-1a3.31,3.31,0,0,1,1.44-.29,1.46,1.46,0,0,1,1.12.35,1.56,1.56,0,0,1,.33,1.06,5.38,5.38,0,0,1,.68-.68,3.51,3.51,0,0,1,2.21-.76,2.3,2.3,0,0,1,1.85.71,2.79,2.79,0,0,1,.65,1.91v4.45l1.45.53v.74Z"/></g><g class="cls-2"><path class="cls-1" d="M427.05,176.49v1a3.13,3.13,0,0,1-1.38.29,1.84,1.84,0,0,1-1.09-.26,1.19,1.19,0,0,1-.42-.83,2.62,2.62,0,0,1-2.32,1.06,3.74,3.74,0,0,1-2.39-.88,2.83,2.83,0,0,1-.88-1.3,4.91,4.91,0,0,1-.33-1.94,4.4,4.4,0,0,1,.44-2,3.83,3.83,0,0,1,1.15-1.38,5.48,5.48,0,0,1,3.21-1,3.2,3.2,0,0,1,1.12.23v-3.18h-1.38v-1a3.22,3.22,0,0,1,1.47-.3,1.29,1.29,0,0,1,1.12.41,2.19,2.19,0,0,1,.3,1.21v9.84h1.38Zm-4-6a3.33,3.33,0,0,0-2.33.8,2.81,2.81,0,0,0-.89,2.21,3.17,3.17,0,0,0,.71,2.21,2,2,0,0,0,1.53.79,2.38,2.38,0,0,0,2.1-1v-4.74A4.25,4.25,0,0,0,423,170.54Z"/><path class="cls-1" d="M432.42,177.76a4.18,4.18,0,0,1-3-1.06,3.92,3.92,0,0,1-1.15-3.06,4.2,4.2,0,0,1,1.18-3.19,3.69,3.69,0,0,1,2.74-1.18c2.48,0,3.71,1.48,3.71,4.4h-6.07v.08a2.57,2.57,0,0,0,.83,1.95,3,3,0,0,0,2.21.79,4.89,4.89,0,0,0,1.15-.14,1.87,1.87,0,0,0,.76-.3l.24-.12.47.86s-.09.06-.15.12a2.32,2.32,0,0,1-.38.23,4.3,4.3,0,0,1-.65.3A5.7,5.7,0,0,1,432.42,177.76Zm1.29-6.69a2.13,2.13,0,0,0-1.5-.53,2.4,2.4,0,0,0-1.53.5,2.47,2.47,0,0,0-.77,1.56h4.45A2.11,2.11,0,0,0,433.71,171.07Z"/><path class="cls-1" d="M443.29,171.78h-1L442,171a1.84,1.84,0,0,0-1.29-.41,3.28,3.28,0,0,0-1.36.24.66.66,0,0,0-.47.62.92.92,0,0,0,.35.7,2.16,2.16,0,0,0,.74.5c.24.12.71.27,1.33.51a4.38,4.38,0,0,1,1.56.85,1.78,1.78,0,0,1,.62,1.41,2,2,0,0,1-.86,1.77,3.35,3.35,0,0,1-1.94.62,6.16,6.16,0,0,1-1.89-.26,3.8,3.8,0,0,1-1.12-.56l-.32-.27v-1.74h1l.35,1s.09.09.27.18a3.21,3.21,0,0,0,1.53.38,2.52,2.52,0,0,0,1.18-.23.74.74,0,0,0,.41-.68,1.08,1.08,0,0,0-.44-.82,3.9,3.9,0,0,0-1.53-.71,5.36,5.36,0,0,1-1.8-.92,1.87,1.87,0,0,1-.74-1.41,2.14,2.14,0,0,1,.86-1.83,3.64,3.64,0,0,1,2.21-.62,5,5,0,0,1,1.32.18,5.67,5.67,0,0,1,1,.33l.35.17v1.83Z"/><path class="cls-1" d="M449.3,177.58H445v-.7l1.36-.53v-5.81H445v-1a3.22,3.22,0,0,1,1.47-.3,1.27,1.27,0,0,1,1.12.42,1.93,1.93,0,0,1,.3,1.21v5.48l1.38.53ZM448,167.39a1.33,1.33,0,0,1-.92.38,1.23,1.23,0,0,1-.91-.38,1.28,1.28,0,0,1-.38-.92,1.21,1.21,0,0,1,.38-.91,1.32,1.32,0,0,1,.91-.38,1.25,1.25,0,0,1,.92.38,1.32,1.32,0,0,1,.38.91A1.25,1.25,0,0,1,448,167.39Z"/><path class="cls-1" d="M457.91,172.34a2.71,2.71,0,0,1-1.06,2.21,3.93,3.93,0,0,1-2.54.82,4.32,4.32,0,0,1-1.53-.26l-.74,1.35h3.16a3.94,3.94,0,0,1,2.53.68,2.39,2.39,0,0,1,.8,2,2.75,2.75,0,0,1-1.12,2.18,5,5,0,0,1-3.16.88,5.23,5.23,0,0,1-3.06-.76,2.34,2.34,0,0,1-1-2,1.76,1.76,0,0,1,1.18-1.71.92.92,0,0,1-.68-1l.06-.41c.62-.95,1-1.53,1.12-1.74a2.83,2.83,0,0,1,0-4.42,3.91,3.91,0,0,1,2.53-.86,4.23,4.23,0,0,1,1.8.39l2.86-.39-.06,1.42-1.65-.15A2.8,2.8,0,0,1,457.91,172.34Zm-6.34,6.87a1.43,1.43,0,0,0,.68,1.2,4.43,4.43,0,0,0,3.95,0,1.44,1.44,0,0,0,.74-1.29c0-.89-.56-1.33-1.71-1.33l-2.89,0A1.41,1.41,0,0,0,451.57,179.21Zm2.74-5.07a2.26,2.26,0,0,0,1.59-.53,1.79,1.79,0,0,0,0-2.6,2.55,2.55,0,0,0-3.15,0,1.84,1.84,0,0,0-.56,1.3,1.73,1.73,0,0,0,.56,1.3A2.12,2.12,0,0,0,454.31,174.14Z"/><path class="cls-1" d="M469.7,177.58h-4.28v-.7l1.3-.53v-3.89a2.78,2.78,0,0,0-.32-1.45,1.26,1.26,0,0,0-1.15-.47,3.33,3.33,0,0,0-2.39,1.06v4.75l1.38.53v.7H460v-.7l1.36-.53v-5.81H460v-1a3.19,3.19,0,0,1,1.45-.3,1.45,1.45,0,0,1,1.12.36,1.6,1.6,0,0,1,.32,1.06,4.79,4.79,0,0,1,.68-.68,3.54,3.54,0,0,1,2.21-.77,2.33,2.33,0,0,1,1.85.71,2.8,2.8,0,0,1,.65,1.92v4.45l1.45.53v.73Z"/></g></g><g id="only_border" data-name="only border"><polygon class="cls-1" points="423.16 100.58 430.5 87.85 441.52 106.97 423.16 100.58"/><polygon class="cls-1" points="470.76 106.97 478.04 94.39 481.6 100.58 470.76 106.97"/><polygon class="cls-1" points="441.52 106.97 470.76 106.97 469.96 125.89 441.52 106.97"/><polygon class="cls-1" points="441.52 106.97 469.96 125.89 437.78 125.89 441.52 106.97"/><polygon class="cls-1" points="423.16 100.58 441.52 106.97 437.78 125.89 423.16 100.58"/><polygon class="cls-1" points="470.76 106.97 481.6 100.58 469.96 125.89 470.76 106.97"/><polygon class="cls-1" points="474.26 127.31 490.18 138.18 491.8 150.68 474.26 127.31"/><polygon class="cls-1" points="490.18 138.18 498.9 149.82 491.8 150.68 490.18 138.18"/><polygon class="cls-1" points="474.26 127.31 501.67 111.33 490.18 138.18 474.26 127.31"/><polygon class="cls-1" points="501.67 111.33 485.76 100.43 474.26 127.31 501.67 111.33"/><polygon class="cls-1" points="485.76 100.43 514.76 96.92 501.67 111.33 485.76 100.43"/><polygon class="cls-1" points="501.67 111.33 514.76 96.92 523.57 108.68 501.67 111.33"/><polygon class="cls-1" points="527.46 114.84 531.11 121.24 538.27 121.39 527.46 114.84"/><polygon class="cls-1" points="531.11 121.24 527.46 114.84 500.94 158.52 531.11 121.24"/><polygon class="cls-1" points="500.94 158.52 531.11 121.24 508.45 158.66 500.94 158.52"/><polygon class="cls-1" points="531.11 121.24 538.27 121.39 538.13 133.97 531.11 121.24"/><polygon class="cls-1" points="538.13 133.97 538.27 121.39 552.36 146.99 538.13 133.97"/><polygon class="cls-1" points="538.13 133.97 552.36 146.99 537.21 171.99 538.13 133.97"/><polygon class="cls-1" points="538.13 133.97 537.21 171.99 522.98 158.99 538.13 133.97"/><polygon class="cls-1" points="508.01 171.4 522.98 158.99 537.21 171.99 508.01 171.4"/><polygon class="cls-1" points="500.94 158.52 522.98 158.99 508.01 171.4 500.94 158.52"/></g><path class="cls-1" d="M202.38,81A33.93,33.93,0,1,1,168.45,115,34,34,0,0,1,202.38,81m0,70.77A36.84,36.84,0,1,0,165.54,115a36.88,36.88,0,0,0,36.84,36.84"/><path class="cls-1" d="M193,132.26v9.6h8.65v-17c-9.72-2.78-10.46-11-10.63-11.64s0-15.33,0-15.33C187.43,92,182.23,92,182.23,92s.15,20.83.44,24.39c.84,10.52,10.35,15.91,10.35,15.91"/><path class="cls-1" d="M201.66,122.89v-8.38a14.88,14.88,0,0,0-8.52-10.69s-.24,7.86,0,10,2.34,6.66,8.52,9.11"/><path class="cls-1" d="M201.69,110.58v-5.87a20.4,20.4,0,0,0-8.52-6.17v3.57c4.41,1.58,8.28,6.37,8.52,8.47"/><path class="cls-1" d="M210,120.93a15.23,15.23,0,0,1-6.85,3.91v17h8.65v-9.6s9.51-5.39,10.35-15.91c.28-3.56.44-24.39.44-24.39s-5.2.06-8.76,5.91c0,0,.11,14.64-.05,15.33a14.09,14.09,0,0,1-3.78,7.73"/><path class="cls-1" d="M203.09,114.51v8.38c6.18-2.45,8.28-7,8.52-9.11s0-10,0-10a14.92,14.92,0,0,0-8.52,10.69"/><path class="cls-1" d="M211.59,102.11V98.54a20.31,20.31,0,0,0-8.52,6.17v5.87c.25-2.1,4.11-6.89,8.53-8.47"/><path class="cls-1" d="M180.11,170l1.78-4.81,1.86,6a7.56,7.56,0,0,0-3.64-1.2m3.92,7.47v.7h8.67v-.7a1.34,1.34,0,0,1-1-.48,6.18,6.18,0,0,1-1-2l-3.87-11.25-.13-.48a1,1,0,0,1,0-.33.89.89,0,0,1,.69-.75v-.7h-7.73v.7c.51.28.68.45.68.83l-.05.35-.1.38-3.92,10.62a8.87,8.87,0,0,1-1.24,2.44,2.47,2.47,0,0,1-1.38.7v.7h5.75v-.7a1.46,1.46,0,0,1-1-.3,1.1,1.1,0,0,1-.33-.88,7.27,7.27,0,0,1,.38-1.7l1-2.76a6.43,6.43,0,0,1,2.34.4,6.8,6.8,0,0,1,1.89,1,3.53,3.53,0,0,1,1.68,2.85,1.29,1.29,0,0,1-1.3,1.41"/><path class="cls-1" d="M213.33,170l1.78-4.81,1.86,6a7.56,7.56,0,0,0-3.64-1.2m3.92,7.47v.7h8.67v-.7a1.34,1.34,0,0,1-1-.48,6.35,6.35,0,0,1-1-2l-3.86-11.25-.13-.48a1,1,0,0,1,0-.33.88.88,0,0,1,.69-.75v-.7h-7.73v.7c.51.28.68.45.68.83l-.05.35-.1.38-3.92,10.62a8.87,8.87,0,0,1-1.24,2.44,2.47,2.47,0,0,1-1.38.7v.7h5.75v-.7a1.46,1.46,0,0,1-1-.3,1.1,1.1,0,0,1-.33-.88,7.27,7.27,0,0,1,.38-1.7l1-2.76a6.43,6.43,0,0,1,2.34.4,6.8,6.8,0,0,1,1.89,1,3.54,3.54,0,0,1,1.67,2.85,1.29,1.29,0,0,1-1.29,1.41"/><path class="cls-1" d="M232.86,168.57v-4.06c0-1.23.44-1.38,1.76-1.38,1.55,0,2.21.55,2.21,1.83,0,1.73-1.45,3.08-4,3.61m9.62,6.56,0-.1a22.14,22.14,0,0,0-3.84-6.62c2.54-1.53,3.43-2.65,3.43-4.26,0-1.83-1.22-2.68-3.69-2.68H226.4v.7a1.35,1.35,0,0,1,1,.61,4.52,4.52,0,0,1,.25,2v10.16a4.85,4.85,0,0,1-.25,2,1.27,1.27,0,0,1-1,.55v.7h7.69v-.7a1.35,1.35,0,0,1-1-.55,5,5,0,0,1-.26-2v-4.44l1-.3a14.44,14.44,0,0,1,2.52,3.43,7,7,0,0,1,1,2.86.88.88,0,0,1-.18.6,3.37,3.37,0,0,1-.68.43v.7h7.91v-.7c-.69-.1-1.32-.88-1.91-2.36"/><path class="cls-1" d="M165.56,170.14v4.44a5.18,5.18,0,0,1-.33,2.33,1.39,1.39,0,0,1-1.25.58v.7h8.42v-.7a1.53,1.53,0,0,1-1.27-.6,5.08,5.08,0,0,1-.33-2.31v-4.46l3.38-5.34a8,8,0,0,1,1.37-1.75,3.86,3.86,0,0,1,1.43-.86v-.7h-5.75v.7c.74.1,1.09.35,1.09,1a4.48,4.48,0,0,1-.76,1.88L170,167.69l-1.83-3a3.25,3.25,0,0,1-.53-1.43,1,1,0,0,1,.3-.76,1.16,1.16,0,0,1,.87-.3v-.7h-9v.7c.89.13,1.43.56,2.11,1.73Z"/><rect class="cls-1" x="197.44" y="179.62" width="4.88" height="1.35"/><path class="cls-1" d="M208.13,172.45a4.09,4.09,0,0,0-1.07-3,9.65,9.65,0,0,0-4.15-2.08l-2.13-.65a6.79,6.79,0,0,1-1.81-.83,1.44,1.44,0,0,1-.43-1.06c0-1,1-1.75,2.36-1.75,1.86,0,3.59,1.25,4.79,3.53l.71-.09-.54-5.32a2.17,2.17,0,0,1-1.19.4,16.9,16.9,0,0,1-2.34-.25,19.6,19.6,0,0,0-2.77-.25,7.3,7.3,0,0,0-4.74,1.43,4.66,4.66,0,0,0-1.73,3.79c0,2.37,1.35,3.83,4.23,4.76l2,.65.49.15c1.88.58,2.82,1.38,2.82,2.38,0,1.4-1.25,2.23-3.38,2.23-3.18,0-5.27-1.85-5.78-5.14l-.69,0,.44,7.07c.86-.56,1.09-.53,1.42-.53s.89.1,2,.3a18.72,18.72,0,0,0,3.1.3h.43a11.26,11.26,0,0,0,3.44-.48,7.68,7.68,0,0,0,2.21-1.2,5.28,5.28,0,0,0,2.24-4.41"/><path class="cls-1" d="M240.18,184.31a.62.62,0,0,1,.45.28,2.13,2.13,0,0,1,.12.91v4.69a2.27,2.27,0,0,1-.12.94.58.58,0,0,1-.45.26v.32h3.55v-.32a.61.61,0,0,1-.44-.26,2.34,2.34,0,0,1-.12-.94V185.5a2.13,2.13,0,0,1,.12-.92.56.56,0,0,1,.44-.27V184h-3.55Z"/><path class="cls-1" d="M210.6,186.72l-1-.3a3.13,3.13,0,0,1-.83-.38.66.66,0,0,1-.2-.49c0-.48.45-.81,1.09-.81a2.61,2.61,0,0,1,2.21,1.63l.33,0-.25-2.46a1,1,0,0,1-.55.19,8.65,8.65,0,0,1-1.08-.12,8.91,8.91,0,0,0-1.28-.12,3.37,3.37,0,0,0-2.19.66,2.15,2.15,0,0,0-.8,1.75c0,1.1.62,1.78,1.95,2.2l.94.3.23.07c.87.27,1.3.64,1.3,1.1,0,.65-.58,1-1.56,1a2.54,2.54,0,0,1-2.67-2.38h-.32l.2,3.27c.4-.26.51-.25.66-.25s.41,0,.94.14a8.29,8.29,0,0,0,1.5.14,4.43,4.43,0,0,0,2.74-.77,2.43,2.43,0,0,0,1-2,1.9,1.9,0,0,0-.5-1.38,4.43,4.43,0,0,0-1.91-1"/><path class="cls-1" d="M166.45,184.31a.93.93,0,0,1,.73.47,3.59,3.59,0,0,1,.28,1.65l.11,1.95v.48c0,1.47-.47,2-1.59,2s-1.56-.53-1.56-1.64v-.48a.54.54,0,0,1,0-.11v-.24l.06-2.39a3,3,0,0,1,.21-1.33.81.81,0,0,1,.66-.41V184h-3.94v.32a.66.66,0,0,1,.57.22,1.76,1.76,0,0,1,.15.89v.17l-.12,2.92c0,.14,0,.28,0,.43v.47c0,1.76.89,2.46,3.11,2.46s3.45-.9,3.45-2.8c0-.47-.06-.89-.06-1.34l0-.12-.11-1.81a.62.62,0,0,1,0-.21v-.27a.93.93,0,0,1,.88-1V184h-2.79Z"/><path class="cls-1" d="M237.3,186.72l-1-.3a3.24,3.24,0,0,1-.84-.38.66.66,0,0,1-.2-.49c0-.48.45-.81,1.1-.81a2.64,2.64,0,0,1,2.21,1.63l.33,0-.25-2.46a1,1,0,0,1-.55.19,8.75,8.75,0,0,1-1.09-.12,8.79,8.79,0,0,0-1.28-.12,3.36,3.36,0,0,0-2.18.66,2.15,2.15,0,0,0-.8,1.75c0,1.1.62,1.78,1.95,2.2l.94.3.22.07c.87.27,1.31.64,1.31,1.1,0,.65-.58,1-1.57,1a2.53,2.53,0,0,1-2.66-2.38h-.32l.2,3.27c.4-.26.5-.25.66-.25s.41,0,.94.14a8.21,8.21,0,0,0,1.5.14,4.43,4.43,0,0,0,2.74-.77,2.45,2.45,0,0,0,1-2,1.89,1.89,0,0,0-.49-1.38,4.49,4.49,0,0,0-1.92-1"/><rect class="cls-1" x="240.88" y="182.55" width="2.17" height="0.65"/><path class="cls-1" d="M228.86,190.94a1.16,1.16,0,0,1-.81-.21,1.34,1.34,0,0,1-.21-.89v-2.55h.6c.92,0,1.37.33,1.66,1.32l.24-.06-.51-3h-.23a1.17,1.17,0,0,1-.28.7,1.26,1.26,0,0,1-.83.19h-.65v-.8c0-.75.19-.92.81-.92a2.82,2.82,0,0,1,1.61.43,2.77,2.77,0,0,1,1,1.27l.31-.05-.66-2.67a.75.75,0,0,1-.67.24h-5.41v.32a.67.67,0,0,1,.45.28,2.19,2.19,0,0,1,.11.91v4.69a2.33,2.33,0,0,1-.11.94.62.62,0,0,1-.45.26v.32h5.73a1.06,1.06,0,0,1,.62.13l1-3.15-.31-.06c-.79,1.58-1.76,2.31-3,2.31"/><path class="cls-1" d="M223.66,184H218.2a.9.9,0,0,1-.53-.13l-.54,2.67.33.06a2.08,2.08,0,0,1,2.11-1.68h.15V190c0,1.09-.19,1.35-.73,1.35v.32h3.89v-.32a.62.62,0,0,1-.58-.28,2.46,2.46,0,0,1-.15-1.07v-5.13h.15a2.09,2.09,0,0,1,2.12,1.68l.33-.06-.56-2.67a.79.79,0,0,1-.53.13"/><path class="cls-1" d="M213.48,184.31a.62.62,0,0,1,.44.28,2,2,0,0,1,.12.91v4.69a2.11,2.11,0,0,1-.12.94.58.58,0,0,1-.44.26v.32H217v-.32a.61.61,0,0,1-.45-.26,2.34,2.34,0,0,1-.12-.94V185.5a2.13,2.13,0,0,1,.12-.92.56.56,0,0,1,.45-.27V184h-3.55Z"/><path class="cls-1" d="M200.55,187.26v-1.87c0-.57.2-.64.81-.64s1,.26,1,.85c0,.8-.67,1.42-1.83,1.66m4.44,3,0-.05a10.08,10.08,0,0,0-1.78-3.06c1.18-.7,1.59-1.22,1.59-2s-.56-1.24-1.7-1.24h-5.52v.32a.62.62,0,0,1,.45.28,2.13,2.13,0,0,1,.12.91v4.7a2.25,2.25,0,0,1-.12.93.58.58,0,0,1-.45.26v.32h3.55v-.32a.61.61,0,0,1-.44-.26,2.31,2.31,0,0,1-.12-.93v-2.06L201,188a6.37,6.37,0,0,1,1.16,1.58,3.16,3.16,0,0,1,.46,1.32.41.41,0,0,1-.08.28,1.64,1.64,0,0,1-.32.2v.32h3.66v-.32c-.32,0-.62-.41-.89-1.09"/><rect class="cls-1" x="166.16" y="182.47" width="1.89" height="0.83"/><path class="cls-1" d="M175,184.31a.65.65,0,0,1,.45.28,2.13,2.13,0,0,1,.12.91v1.18L174,185a.91.91,0,0,1-.15-.21.39.39,0,0,1-.06-.2.35.35,0,0,1,.27-.31V184h-4.41v.32a.67.67,0,0,1,.45.28,2.19,2.19,0,0,1,.11.91v4.69a2.33,2.33,0,0,1-.11.94.62.62,0,0,1-.45.26v.32H172v-.32a.75.75,0,0,1-.58-.29,2.18,2.18,0,0,1-.16-1.06v-4.61l4.31,4.75v.27a1.2,1.2,0,0,1-.16.75.74.74,0,0,1-.57.19v.32h2.3v-.32a.65.65,0,0,1-.45-.26,2.4,2.4,0,0,1-.11-.94V185.5a2.18,2.18,0,0,1,.11-.92.6.6,0,0,1,.45-.27V184H175Z"/><rect class="cls-1" x="163.31" y="182.47" width="1.89" height="0.83"/><rect class="cls-1" x="178.53" y="182.55" width="2.17" height="0.65"/><path class="cls-1" d="M193.84,190.94a1.16,1.16,0,0,1-.81-.21,1.34,1.34,0,0,1-.21-.89v-2.55h.6c.93,0,1.37.33,1.67,1.32l.23-.06-.5-3h-.24a1.17,1.17,0,0,1-.28.7,1.22,1.22,0,0,1-.82.19h-.66v-.8c0-.75.2-.92.81-.92a2.78,2.78,0,0,1,1.61.43,2.71,2.71,0,0,1,1,1.27l.31-.05-.66-2.67a.75.75,0,0,1-.67.24h-5.41v.32a.62.62,0,0,1,.45.28,2.13,2.13,0,0,1,.12.91v4.69a2.27,2.27,0,0,1-.12.94.58.58,0,0,1-.45.26v.32h5.73a1,1,0,0,1,.62.13l1-3.15-.3-.06c-.79,1.58-1.77,2.31-3,2.31"/><rect class="cls-1" x="214.17" y="182.55" width="2.18" height="0.65"/><path class="cls-1" d="M187.07,184.31c.41.09.55.22.55.53l-.06.32-.18.59-1.15,3.41-1.1-3.38c-.09-.23-.12-.42-.17-.57a2.74,2.74,0,0,1-.06-.34.56.56,0,0,1,.49-.56V184h-3.73v.32c.36.08.55.29.82,1.12l1.65,4.92.08.24a1.52,1.52,0,0,1,.11.4.42.42,0,0,1-.37.4v.32h3v-.32a.4.4,0,0,1-.3-.36.54.54,0,0,1,0-.19l.11-.33,1.66-4.59.12-.32c.27-.77.61-1.2,1-1.29V184h-2.56Z"/><path class="cls-1" d="M177.83,184.31a.62.62,0,0,1,.45.28,2.19,2.19,0,0,1,.11.91v4.69a2.33,2.33,0,0,1-.11.94.58.58,0,0,1-.45.26v.32h3.55v-.32a.61.61,0,0,1-.44-.26,2.17,2.17,0,0,1-.12-.94V185.5a2,2,0,0,1,.12-.92.56.56,0,0,1,.44-.27V184h-3.55Z"/><path class="cls-3" d="M739.49,144.3V132.41h18.34c.24-.62.41-1.25.65-1.81,3.6-8.41,10-13.08,19.12-13.76A21.45,21.45,0,0,1,799.71,134a21,21,0,0,1,.45,3.36c.06,2.29,0,7,0,7h-60.7Zm46.37-12c-3.8-4.9-11.44-4.31-14.45,0Z"/><path class="cls-3" d="M689.37,109.23c-1.49-3.72-3-7.41-4.46-11.15l11-4.43c-3.78-1.52-7.38-2.94-11-4.43,1.48-3.75,3-7.4,4.46-11.15.44.18.86.33,1.25.48,7,2.79,13.91,5.59,20.86,8.35a2,2,0,0,0,1.31,0c7.11-2.79,14.18-5.65,21.26-8.47.26-.09.5-.21.86-.33,1.49,3.72,3,7.4,4.46,11.15l-11,4.43,11,4.43-4.46,11.17-6.12-2.43c-5.36-2.14-10.68-4.28-16-6.36a2,2,0,0,0-1.31,0c-7.16,2.82-14.32,5.7-21.49,8.56A4.91,4.91,0,0,0,689.37,109.23Z"/><path class="cls-3" d="M634.19,116.84h12v15.51h38.41v12H634.19Z"/><path class="cls-3" d="M712.14,133.3c-6.42,7.73-14.06,12.64-24.5,11v-12h3.93c11.5,0,20.33-21.73,20.6-22.17.27.44,9.09,22.17,20.6,22.17h3.92v12c-10.46,1.64-18.07-3.27-24.49-11Z"/><path class="cls-3" d="M742.76,159.75h-.89v2.82h.89v.76H740v-.76h.9v-2.82H740V159h2.81Z"/><path class="cls-3" d="M746.15,159.85a13.79,13.79,0,0,1,.15,1.85v1.63h-.87V159h1.28l1.1,3.47a10.63,10.63,0,0,1-.15-1.81V159h.86v4.33h-1.24Z"/><path class="cls-3" d="M753.1,163.33h-1v-3.54h-1.22V159h3.5l-.1.79H753.1Z"/><path class="cls-3" d="M758,160.78h1.49v.71H758v1.1h1.8v.74h-2.83V159h2.83l-.11.73H758Z"/><path class="cls-3" d="M764.6,161.51l1.13,1.82h-1.16l-.94-1.66h-.28v1.66h-1V159h1.36c1.18,0,1.78.42,1.78,1.32A1.25,1.25,0,0,1,764.6,161.51Zm-.92-1.79h-.33V161h.38c.44,0,.68-.19.68-.65S764.16,159.72,763.68,159.72Z"/><path class="cls-3" d="M768.81,162.39l-.23.94h-1.07l1.32-4.33h1.24l1.33,4.33h-1.1l-.23-.94Zm1.1-.73-.47-1.92-.47,1.92Z"/><path class="cls-3" d="M776.82,159.37l-.5.6a1.38,1.38,0,0,0-.86-.32c-.55,0-1,.45-1,1.51s.41,1.48,1,1.48a1.36,1.36,0,0,0,.94-.39l.46.6a2,2,0,0,1-1.45.58,2,2,0,0,1-2-2.27,2.09,2.09,0,0,1,3.41-1.79Z"/><path class="cls-3" d="M781.19,163.33h-1v-3.54H779V159h3.5l-.1.79h-1.16Z"/><path class="cls-3" d="M787.71,159.75h-.89v2.82h.89v.76H784.9v-.76h.89v-2.82h-.89V159h2.81Z"/><path class="cls-3" d="M791.92,163.43c-1.13,0-1.72-.86-1.72-2.27s.59-2.27,1.72-2.27,1.73.87,1.73,2.27S793.06,163.43,791.92,163.43Zm0-3.79c-.48,0-.68.46-.68,1.52s.2,1.53.68,1.53.68-.48.68-1.53S792.41,159.64,791.92,159.64Z"/><path class="cls-3" d="M796.71,159.85a13.79,13.79,0,0,1,.15,1.85v1.63H796V159h1.27l1.1,3.47a11.79,11.79,0,0,1-.15-1.81V159h.87v4.33h-1.24Z"/><path class="cls-3" d="M741,172.84h-1.17v-4.32h1.09c1.11,0,2.17.35,2.17,2.14S742.05,172.84,741,172.84Zm.07-3.58h-.22v2.84h.22c.57,0,1-.31,1-1.44S741.6,169.26,741.05,169.26Z"/><path class="cls-3" d="M746.71,170.29h1.5V171h-1.5v1.1h1.8v.74h-2.82v-4.32h2.82l-.1.73h-1.7Z"/><path class="cls-3" d="M752.51,173a2.29,2.29,0,0,1-1.71-.63l.52-.57a1.69,1.69,0,0,0,1.16.44c.43,0,.72-.2.72-.53s-.18-.47-.78-.65c-1-.31-1.4-.69-1.4-1.35s.73-1.26,1.63-1.26a2.17,2.17,0,0,1,1.55.57l-.48.55a1.55,1.55,0,0,0-1-.36c-.39,0-.65.14-.65.42s.2.39.88.6,1.31.6,1.31,1.39S753.61,173,752.51,173Z"/><path class="cls-3" d="M759.62,169.27h-.89v2.82h.89v.75h-2.81v-.75h.89v-2.82h-.89v-.75h2.81Z"/><path class="cls-3" d="M762.1,170.67a2,2,0,0,1,2-2.27,1.88,1.88,0,0,1,1.38.54l-.54.56a1.12,1.12,0,0,0-.79-.35c-.58,0-1,.44-1,1.53s.27,1.52.84,1.52a1.16,1.16,0,0,0,.54-.13v-1H764l-.1-.72h1.61v2.15A2.77,2.77,0,0,1,764,173C762.76,173,762.1,172.15,762.1,170.67Z"/><path class="cls-3" d="M768.62,169.37a13.46,13.46,0,0,1,.15,1.84v1.63h-.87v-4.32h1.28l1.1,3.46a11.79,11.79,0,0,1-.15-1.81v-1.65H771v4.32h-1.24Z"/><path class="cls-3" d="M779.4,168.52h1V172h1.87l-.1.81H779.4Z"/><path class="cls-3" d="M785.66,171.91l-.22.93h-1.07l1.32-4.32h1.24l1.32,4.32h-1.1l-.22-.93Zm1.1-.74-.47-1.92-.46,1.92Z"/><path class="cls-3" d="M791.84,172.84H790.4v-4.32h1.37c.89,0,1.66.26,1.66,1.1a1,1,0,0,1-.79.93,1,1,0,0,1,1,1C793.62,172.57,792.77,172.84,791.84,172.84Zm-.1-3.6h-.32v1h.35c.44,0,.63-.16.63-.52S792.19,169.24,791.74,169.24Zm.1,1.69h-.42v1.16h.38c.4,0,.76-.09.76-.56S792.28,170.93,791.84,170.93Z"/><path class="cls-3" d="M741.56,182.35h-.41v-1.66l-1.46-2.62h.45l1.23,2.24,1.25-2.24h.4l-1.46,2.62Z"/><path class="cls-3" d="M746,181.21l-.37,1.14h-.38l1.43-4.28h.52l1.42,4.28h-.41l-.37-1.14Zm1.7-.37-.77-2.4-.79,2.4Z"/><path class="cls-3" d="M752.68,182.41v.32c.4,0,.56.27.56.49,0,.4-.36.58-.71.58a1.33,1.33,0,0,1-.63-.14l.15-.26a1,1,0,0,0,.42.1c.23,0,.39-.08.39-.28s-.21-.29-.53-.29l0-.52a2.05,2.05,0,0,1-1.31-.52l.27-.3a1.63,1.63,0,0,0,1.2.46c.55,0,1.08-.27,1.08-.88,0-.44-.21-.66-1-.89s-1.37-.52-1.37-1.21.51-1.07,1.31-1.07a1.9,1.9,0,0,1,1.32.48l-.27.29a1.54,1.54,0,0,0-1.05-.4c-.49,0-.92.23-.92.7s.29.61,1.14.85c.63.17,1.24.44,1.24,1.27C754,181.86,753.53,182.35,752.68,182.41Z"/><path class="cls-3" d="M757.28,181.21l-.38,1.14h-.37l1.42-4.28h.53l1.42,4.28h-.41l-.38-1.14Zm1.7-.37-.78-2.4-.78,2.4Z"/><path class="cls-3" d="M764.16,180.43l1.33,1.92H765l-1.25-1.89h-.67v1.89h-.39v-4.28h1c1,0,1.57.4,1.57,1.17A1.24,1.24,0,0,1,764.16,180.43Zm-.38-2h-.71v1.7h.7c.67,0,1.06-.23,1.06-.87S764.5,178.41,763.78,178.41Z"/><path class="cls-3" d="M742.73,190.49a1.34,1.34,0,0,1-1.38,1.44,1.32,1.32,0,0,1-1.36-1.44v-2.91h.4v3a1,1,0,0,0,1.93,0v-3h.41Z"/><path class="cls-3" d="M746,188c0,.13.05.92.05,1.56v2.31h-.39v-4.29h.57l1.67,3.89c0-.12,0-.82,0-1.59v-2.3h.39v4.29h-.61Z"/><path class="cls-3" d="M753.77,187.92h-1v3.61h1v.34h-2.35v-.34h1v-3.61h-1v-.34h2.35Z"/><path class="cls-3" d="M759.49,187.58h.39l-1.49,4.29H758l-1.5-4.29H757l1.25,3.73Z"/><path class="cls-3" d="M763.2,189.51h1.62v.36H763.2v1.65h2v.35H762.8v-4.29h2.33l0,.36H763.2Z"/><path class="cls-3" d="M769.78,189.94l1.32,1.93h-.49l-1.25-1.9h-.67v1.9h-.39v-4.29h1c1,0,1.57.4,1.57,1.17A1.24,1.24,0,0,1,769.78,189.94Zm-.38-2h-.71v1.71h.7c.67,0,1.06-.24,1.06-.88S770.12,187.92,769.4,187.92Z"/><path class="cls-3" d="M775,191.93a2,2,0,0,1-1.45-.53l.26-.3a1.63,1.63,0,0,0,1.2.47c.55,0,1.08-.28,1.08-.88,0-.45-.2-.67-1-.9s-1.38-.52-1.38-1.21.52-1.06,1.32-1.06a1.93,1.93,0,0,1,1.32.47l-.28.29a1.52,1.52,0,0,0-1-.39c-.5,0-.92.22-.92.69s.28.61,1.13.85c.63.18,1.25.44,1.25,1.27S775.94,191.93,775,191.93Z"/><path class="cls-3" d="M781.87,187.92h-1v3.61h1v.34h-2.36v-.34h1v-3.61h-1v-.34h2.36Z"/><path class="cls-3" d="M786.49,191.87h-.4V188h-1.38v-.37h3.17l0,.37h-1.34Z"/><path class="cls-3" d="M792.13,191.87h-.41v-1.66l-1.46-2.63h.44l1.24,2.24,1.24-2.24h.41l-1.46,2.62Z"/></g></svg>